<svg xmlns="http://www.w3.org/2000/svg" xmlns:xlink="http://www.w3.org/1999/xlink" width="400" height="400" viewBox="0 0 400 400"><defs><radialGradient id="gradient-4" cx="10%" cy="20%" r="100%" fx="10%" fy="20%">       <stop offset="0%" stop-color="rgba(14, 174, 87, 1)"></stop>       <stop offset="90%" stop-color="rgba(12, 116, 117, 1)"></stop>     </radialGradient></defs>
<rect data-name="background" width="100%" height="100%" fill="#ffffff"></rect><g data-name="icon" fill="url(#gradient-4)" data="id:8235270" transform="translate(112.25064102178966, 61.40381046002429) scale(1.754987112616761)">
  
 <path d="m50 10c-9.8516 0-17.867 8.0156-17.867 17.867 0 9.8516 8.0156 17.871 17.867 17.871s17.867-8.0156 17.867-17.871c0-9.8516-8.0156-17.867-17.867-17.867zm0 34.055c-8.9258 0-16.184-7.2617-16.184-16.188 0-8.9258 7.2617-16.184 16.184-16.184 8.9258 0 16.184 7.2617 16.184 16.184 0 8.9258-7.2578 16.188-16.184 16.188zm7.5039 3.0664c-4.9766 1.4023-10.027 1.4023-15.004 0-0.36719-0.10547-0.75 0.050781-0.94531 0.37109-0.19531 0.32031-0.15625 0.73437 0.10156 1.0117l5.168 5.5781 0.28125 21.473c0.03125 2.2617 0.26172 4.5234 0.69141 6.707l1.3828 7.0547c0.074218 0.39844 0.41797 0.68359 0.82031 0.68359s0.74609-0.28516 0.82422-0.67969l1.3828-7.0547c0.42969-2.1875 0.66406-4.4453 0.69141-6.707l0.28125-21.473 5.168-5.5781c0.25391-0.27734 0.29688-0.6875 0.10156-1.0117-0.19922-0.32422-0.58594-0.48047-0.94531-0.375zm-5.7812 6.0547c-0.070312 0.078125-0.0625 0.17969-0.10156 0.27344-0.042969 0.097656-0.12109 0.17578-0.125 0.28906l-0.28516 21.797c-0.03125 2.1641-0.25 4.3203-0.66016 6.4102l-0.55078 2.8359-0.55859-2.8398c-0.40625-2.0898-0.62891-4.2461-0.66016-6.4102l-0.28516-21.797c0-0.11328-0.082032-0.19141-0.125-0.28906-0.039063-0.089843-0.03125-0.19531-0.10156-0.27344l-3.5234-3.8047c3.4922 0.64453 7.0039 0.64453 10.496 0zm-10.211-20.801c-0.38281-0.39844-0.58203-0.90234-0.57812-1.4531 0-0.46484 0.37891-0.83984 0.83984-0.83984h0.003906c0.46484 0 0.83984 0.38281 0.83984 0.84375 0 0.11719 0.03125 0.20312 0.11328 0.28906 0.32031 0.33594 0.30859 0.87109-0.03125 1.1914-0.16406 0.15625-0.37109 0.23047-0.58203 0.23047-0.21875 0-0.44141-0.085938-0.60547-0.26172zm1.4336 0.42578c0.44531-0.14062 0.91797 0.085938 1.0664 0.52734 0.039062 0.11328 0.09375 0.17578 0.20312 0.23438 0.41406 0.21484 0.57422 0.72266 0.36328 1.1328-0.14844 0.28906-0.44531 0.45703-0.74609 0.45703-0.13281 0-0.26172-0.03125-0.38672-0.09375-0.49219-0.25391-0.84766-0.66406-1.0234-1.1914-0.15234-0.44141 0.085937-0.91797 0.52344-1.0664zm1.9883 2.1914c0.36328-0.28906 0.89062-0.21875 1.1797 0.14844 0.074219 0.09375 0.14844 0.13672 0.26562 0.15625 0.46094 0.066406 0.78125 0.49219 0.71484 0.95312-0.0625 0.42188-0.42188 0.72266-0.83203 0.72266-0.039063 0-0.082031-0.003906-0.12109-0.007812-0.55078-0.078125-1.0156-0.35156-1.3594-0.78906-0.28125-0.36719-0.21484-0.89844 0.15234-1.1836zm-5.8672-2.8984c-0.15234 0.11328-0.32812 0.16797-0.50391 0.16797-0.25391 0-0.50781-0.11719-0.67578-0.33594-0.32812-0.44141-0.46875-0.96094-0.40625-1.5078 0.050781-0.46094 0.48047-0.80078 0.93359-0.73828 0.46094 0.054687 0.79297 0.47266 0.73828 0.93359-0.011719 0.12109 0.011718 0.20703 0.082031 0.30078 0.28125 0.37109 0.20312 0.89844-0.16797 1.1797zm0.28516 2.8242c-0.43359-0.33984-0.70312-0.80859-0.78125-1.3555-0.066406-0.46094 0.25391-0.88672 0.71484-0.95312 0.44922-0.0625 0.88281 0.25391 0.95312 0.71484 0.015625 0.11719 0.0625 0.19531 0.15625 0.26953 0.36328 0.28516 0.42969 0.81641 0.14453 1.1836-0.16797 0.21094-0.41406 0.32031-0.66406 0.32031-0.1875 0-0.36719-0.058594-0.52344-0.17969zm2.1836 2.5156c-0.50781-0.21875-0.89062-0.60156-1.1055-1.1094-0.17969-0.42969 0.019531-0.92188 0.44531-1.1055 0.43359-0.17578 0.92188 0.019531 1.1016 0.44531 0.046876 0.10938 0.10938 0.17188 0.22266 0.21875 0.42578 0.18359 0.62109 0.67969 0.4375 1.1055-0.13672 0.31641-0.44531 0.50781-0.77344 0.50781-0.10547 0.007812-0.21875-0.015625-0.32812-0.0625zm2.8906 1.8711c-0.039062 0-0.082031-0.003907-0.12109-0.007813-0.54688-0.078125-1.0156-0.34766-1.3555-0.78125-0.28516-0.36719-0.22266-0.89453 0.14453-1.1836 0.36719-0.28125 0.89453-0.22656 1.1836 0.14453 0.074218 0.09375 0.14844 0.13672 0.26953 0.15625 0.46094 0.066407 0.78125 0.49219 0.71484 0.95313-0.066407 0.41797-0.42578 0.71875-0.83594 0.71875zm3.7656 0.14453c0.054688 0.46094-0.27344 0.87891-0.73828 0.93359-0.085937 0.011719-0.17188 0.015626-0.25781 0.015626-0.45312 0-0.88281-0.14453-1.2539-0.42188-0.37109-0.28125-0.44531-0.80859-0.16797-1.1797 0.28125-0.37109 0.80859-0.44531 1.1797-0.16797 0.097656 0.074219 0.1875 0.09375 0.30469 0.082032 0.45703-0.074219 0.87891 0.27734 0.93359 0.73828zm-12.688-10.27c-0.33203 0-0.64844-0.19922-0.78125-0.52734-0.20703-0.51172-0.20703-1.0586 0-1.5664 0.17578-0.43359 0.66016-0.64063 1.0977-0.46484 0.42969 0.17578 0.64063 0.66406 0.46484 1.0977-0.046875 0.10938-0.046875 0.19531 0 0.30859 0.17578 0.42969-0.035156 0.92188-0.46875 1.0938-0.097656 0.039062-0.20703 0.058594-0.3125 0.058594zm1.1211 3.5664c-0.15234 0.11328-0.32812 0.16797-0.50391 0.16797-0.25391 0-0.50781-0.11719-0.67578-0.33594-0.32812-0.44141-0.46875-0.96094-0.40625-1.5078 0.050782-0.46094 0.47266-0.79687 0.93359-0.73828 0.46094 0.054688 0.79297 0.47266 0.73828 0.93359-0.011719 0.12109 0.011718 0.20703 0.082031 0.30078 0.27734 0.37109 0.20312 0.90234-0.16797 1.1797zm1.5781 2.1172c0.36328 0.28906 0.42578 0.81641 0.14062 1.1836-0.16797 0.21094-0.41406 0.32031-0.66016 0.32031-0.18359 0-0.36719-0.058594-0.51953-0.17969-0.43359-0.34375-0.70703-0.80859-0.78125-1.3555-0.066406-0.46094 0.25391-0.88672 0.71484-0.95312 0.44531-0.050781 0.88281 0.25391 0.95312 0.71484 0.011719 0.11328 0.054688 0.19141 0.15234 0.26953zm2.2109 2.8125c0.42578 0.18359 0.625 0.67969 0.44141 1.1055-0.13672 0.32031-0.44922 0.50781-0.77344 0.50781-0.11328 0-0.22266-0.019531-0.33203-0.066406-0.50781-0.21875-0.89062-0.60156-1.1055-1.1094-0.18359-0.42578 0.015625-0.92188 0.44531-1.1016 0.42188-0.18359 0.91797 0.019531 1.1016 0.44531 0.046875 0.10938 0.11328 0.17188 0.22266 0.21875zm3.5781 3.0977c-0.0625 0.42187-0.42188 0.72266-0.83203 0.72266-0.039062 0-0.082031-0.003906-0.12109-0.007813-0.55078-0.078125-1.0195-0.35156-1.3594-0.78906-0.28516-0.36719-0.21875-0.89453 0.14844-1.1797 0.36328-0.28906 0.89062-0.21875 1.1797 0.14844 0.074219 0.09375 0.14844 0.13672 0.26563 0.15234 0.46484 0.066407 0.78516 0.49219 0.71875 0.95313zm3.5469 1.1172c0.054688 0.46094-0.27344 0.87891-0.73828 0.93359-0.085937 0.011719-0.17188 0.015625-0.25781 0.015625-0.45312 0-0.88281-0.14453-1.2539-0.42188-0.37109-0.28125-0.44531-0.80859-0.16797-1.1797 0.28125-0.375 0.80859-0.44531 1.1797-0.16797 0.097657 0.074219 0.19141 0.09375 0.30469 0.082032 0.44922-0.066406 0.87891 0.27734 0.93359 0.73828zm3.7109 0.15625c0.17578 0.42969-0.035156 0.92188-0.46875 1.0938-0.25391 0.10547-0.51562 0.15625-0.78125 0.15625s-0.52734-0.050781-0.78516-0.15625c-0.43359-0.17578-0.64062-0.66406-0.46875-1.0938 0.17578-0.43359 0.66797-0.63672 1.0938-0.46875 0.11328 0.046875 0.19922 0.046875 0.3125 0 0.42969-0.16406 0.92578 0.035156 1.0977 0.46875z"></path>

  </g><g data-name="business_name" fill="#152232" data="id:305" transform="translate(62.59084379958346, 204.83614275444125) scale(1.8360391960194207)"><path d="M16.84,48q-2.28,0-3.94-0.98t-2.56-2.68t-0.9-3.82l0-17.12l-8.52,0l0-3.4l20.88,0l0,3.4l-8.52,0l0,17.6q0,1.56,0.98,2.58t2.62,1.02l1.84,0l0,3.4l-1.88,0z M36,48q-3.36,0-5.96-1.26t-4.06-3.56t-1.46-5.38q0-3.04,1.24-5.46t3.44-3.82t5.12-1.4q3.16,0,5.26,1.36t3.14,3.66t1.04,5.14q0,0.44-0.02,0.92t-0.1,0.84l-15.2,0q0.2,1.88,1.24,3.18t2.66,1.96t3.58,0.66l5.32,0l0,3.16l-5.24,0z M28.4,36.44l11.64,0q0-0.76-0.16-1.62t-0.56-1.68t-1.06-1.48t-1.64-1.06t-2.3-0.4q-1.4,0-2.46,0.54t-1.82,1.44t-1.16,2.02t-0.48,2.24z M58.8,48q-3.36,0-5.96-1.26t-4.06-3.56t-1.46-5.38q0-3.04,1.24-5.46t3.44-3.82t5.12-1.4q3.16,0,5.26,1.36t3.14,3.66t1.04,5.14q0,0.44-0.02,0.92t-0.1,0.84l-15.2,0q0.2,1.88,1.24,3.18t2.66,1.96t3.58,0.66l5.32,0l0,3.16l-5.24,0z M51.2,36.44l11.64,0q0-0.76-0.16-1.62t-0.56-1.68t-1.06-1.48t-1.64-1.06t-2.3-0.4q-1.4,0-2.46,0.54t-1.82,1.44t-1.16,2.02t-0.48,2.24z M71.36,48l0-28l11.8,0q2.64,0,4.8,1.18t3.44,3.3t1.28,4.96q0,2.72-1.26,4.86t-3.42,3.34t-4.92,1.2l-7.88,0l0,9.16l-3.84,0z M75.2,35.44l7.44,0q1.72,0,3.14-0.7t2.24-2.06t0.82-3.24q0-1.92-0.84-3.26t-2.24-2.06t-3.08-0.72l-7.48,0l0,12.04z M105.64,48.48q-2.96,0-5.12-1.42t-3.32-3.86t-1.16-5.4q0-3,1.28-5.42t3.68-3.84t5.76-1.42q3.24,0,5.56,1.4t3.58,3.8t1.26,5.36l0,10.32l-3.72,0l0-4.16l-0.08,0q-0.6,1.16-1.62,2.22t-2.54,1.74t-3.56,0.68z M106.6,45.32q2,0,3.54-0.98t2.4-2.72t0.86-3.9q0-2.12-0.82-3.8t-2.34-2.66t-3.56-0.98q-2.16,0-3.7,1t-2.36,2.7t-0.82,3.86q0,2.08,0.8,3.78t2.32,2.7t3.68,1z M123,48l0-29.2l3.68,0l0,29.2l-3.68,0z M132.24,48l0-3.16l9.76,0q0.96,0,1.66-0.42t1.06-1.1t0.36-1.44q0-0.72-0.32-1.34t-0.98-1t-1.58-0.38l-4.12,0q-1.96,0-3.42-0.66t-2.28-1.94t-0.82-3.12q0-1.56,0.76-2.88t2.12-2.14t3.12-0.82l9.4,0l0,3.16l-9.04,0q-1.24,0-1.96,0.76t-0.72,1.8q0,1,0.74,1.74t2.1,0.74l3.92,0q2.2,0,3.7,0.7t2.28,2.02t0.78,3.24q0,1.64-0.8,3.06t-2.22,2.3t-3.3,0.88l-10.2,0z"></path></g><g data-name="slogan" fill="#152232" data="id:306" transform="translate(103.70083720893818, 294.5907190458779) scale(0.47616274408553727)"><path d="M16.68,48.36q-4.48,0-7.6-1.72t-4.74-4.96t-1.62-7.76t1.62-7.76t4.64-4.98t7.22-1.74q2.04,0,3.88,0.4t3.4,1.18t2.72,1.94l-1.32,2.72q-1.88-1.68-3.98-2.4t-4.7-0.72q-4.76,0-7.32,2.92t-2.56,8.44q0,5.64,2.64,8.52t7.8,2.88q2.08,0,3.98-0.38t3.5-1.02l-0.84,1.96l0-9.88l-7.12,0l0-2.84l10.16,0l0,13.2q-1.12,0.56-2.76,1.02t-3.46,0.72t-3.54,0.26z M41.6,48.36q-2.92,0-5.06-1.26t-3.3-3.54t-1.16-5.4q0-3.08,1.16-5.34t3.3-3.52t5.06-1.26t5.06,1.26t3.3,3.52t1.16,5.34q0,3.12-1.16,5.4t-3.3,3.54t-5.06,1.26z M41.6,45.56q2.84,0,4.48-1.96t1.64-5.44t-1.64-5.4t-4.48-1.92t-4.48,1.92t-1.64,5.4t1.66,5.44t4.46,1.96z M62.52,48.36q-2.92,0-4.46-1.72t-1.54-4.88l0-21.96l3.4,0l0,21.68q0,1.28,0.38,2.2t1.1,1.36t1.76,0.44q0.52,0,1.02-0.04t1.02-0.2l-0.04,2.76q-0.64,0.16-1.28,0.26t-1.36,0.1z M70,48l0-16.96l-3.92,0l0-2.64l4.84,0l-0.92,0.88l0-1.4q0-3.88,2.06-5.9t6.14-2.22l1.8-0.12l0.28,2.72l-2.12,0.12q-1.52,0.08-2.58,0.62t-1.62,1.6t-0.56,2.78l0,1.4l-0.48-0.48l6.4,0l0,2.64l-5.92,0l0,16.96l-3.4,0z M84.6,53.16l-1.64-1.28q0.72-0.72,1.12-1.48t0.56-1.54t0.2-1.5l0.68,0.64l-2.8,0l0-4.24l4.36,0l0,3.08q0,1.16-0.24,2.26t-0.78,2.14t-1.46,1.92z  M104.28,48l0-28.2l11.48,0q4.4,0,6.82,1.92t2.42,5.44q0,2.6-1.46,4.3t-3.82,2.26l0-0.32q1.76,0.24,3.1,1.1t2.1,2.3t0.76,3.44q0,2.52-1.1,4.24t-3.22,2.62t-5.12,0.9l-11.96,0z M107.68,45.16l8.32,0q1.28,0,2.28-0.2t1.74-0.6t1.24-1t0.76-1.4t0.26-1.76q0-1.08-0.26-1.88t-0.78-1.4t-1.26-1t-1.74-0.58t-2.24-0.18l-8.32,0l0,10z M107.68,32.32l7.68,0q3.08,0,4.66-1.26t1.58-3.66q0-2.36-1.56-3.56t-4.68-1.2l-7.68,0l0,9.68z M140.88,48.36q-3.2,0-5.52-1.22t-3.56-3.5t-1.24-5.44q0-3,1.18-5.28t3.34-3.58t5.04-1.3q2.8,0,4.74,1.2t2.98,3.38t1.04,5.22l0,1.2l-15.76,0l0-2.32l13.52,0l-0.68,0.64q0-3.2-1.48-4.98t-4.32-1.78q-1.96,0-3.38,0.9t-2.18,2.52t-0.76,3.82l0,0.32q0,2.44,0.82,4.08t2.42,2.5t3.84,0.86q1.68,0,3.32-0.5t3.12-1.7l1.16,2.4q-1.44,1.24-3.5,1.9t-4.14,0.66z M162.2,48.36q-3.52,0-5.28-1.86t-1.76-5.3l0-10.08l-3.92,0l0-2.72l4,0l0-5.92l3.32,0l0,5.92l6.64,0l0,2.72l-6.64,0l0,9.76q0,2.28,0.98,3.42t3.14,1.14q0.72,0,1.44-0.16t1.32-0.4l0.6,2.64q-0.68,0.36-1.74,0.6t-2.1,0.24z M177.56,48.36q-3.52,0-5.28-1.86t-1.76-5.3l0-10.08l-3.92,0l0-2.72l4,0l0-5.92l3.32,0l0,5.92l6.64,0l0,2.72l-6.64,0l0,9.76q0,2.28,0.98,3.42t3.14,1.14q0.72,0,1.44-0.16t1.32-0.4l0.6,2.64q-0.68,0.36-1.74,0.6t-2.1,0.24z M194,48.36q-3.2,0-5.52-1.22t-3.56-3.5t-1.24-5.44q0-3,1.18-5.28t3.34-3.58t5.04-1.3q2.8,0,4.74,1.2t2.98,3.38t1.04,5.22l0,1.2l-15.76,0l0-2.32l13.52,0l-0.68,0.64q0-3.2-1.48-4.98t-4.32-1.78q-1.96,0-3.38,0.9t-2.18,2.52t-0.76,3.82l0,0.32q0,2.44,0.82,4.08t2.42,2.5t3.84,0.86q1.68,0,3.32-0.5t3.12-1.7l1.16,2.4q-1.44,1.24-3.5,1.9t-4.14,0.66z M207.24,48l0-19.6l3.2,0l0,4.56l-0.16,0q0.68-2.28,2.42-3.5t4.42-1.42l1.48-0.12l0.32,3.04l-2.48,0.24q-2.76,0.24-4.26,1.78t-1.5,4.02l0,11l-3.44,0z  M240.92,48l0-25.2l-10.2,0l0-3l23.84,0l0,3l-10.2,0l0,25.2l-3.44,0z M266.68,48.36q-2.92,0-5.06-1.26t-3.3-3.54t-1.16-5.4q0-3.08,1.16-5.34t3.3-3.52t5.06-1.26t5.06,1.26t3.3,3.52t1.16,5.34q0,3.12-1.16,5.4t-3.3,3.54t-5.06,1.26z M266.68,45.56q2.84,0,4.48-1.96t1.64-5.44t-1.64-5.4t-4.48-1.92t-4.48,1.92t-1.64,5.4t1.66,5.44t4.46,1.96z M290.2,55.56q-2.44,0-4.7-0.68t-3.98-1.96l1.12-2.56q1.16,0.8,2.38,1.34t2.48,0.8t2.58,0.26q3,0,4.58-1.56t1.58-4.4l0-4.08l0.16,0q-0.64,2.16-2.56,3.46t-4.44,1.3q-2.72,0-4.74-1.22t-3.12-3.42t-1.1-5.08q0-2.92,1.1-5.12t3.12-3.4t4.74-1.2q2.56,0,4.48,1.3t2.56,3.54l-0.2,0l0-4.48l3.28,0l0,18q0,2.92-1.08,4.98t-3.16,3.12t-5.08,1.06z M290,44.72q2.84,0,4.52-1.9t1.68-5.06q0-3.2-1.68-5.08t-4.52-1.88t-4.5,1.88t-1.66,5.08q0,3.16,1.66,5.06t4.5,1.9z M315.24,48.36q-3.2,0-5.52-1.22t-3.56-3.5t-1.24-5.44q0-3,1.18-5.28t3.34-3.58t5.04-1.3q2.8,0,4.74,1.2t2.98,3.38t1.04,5.22l0,1.2l-15.76,0l0-2.32l13.52,0l-0.68,0.64q0-3.2-1.48-4.98t-4.32-1.78q-1.96,0-3.38,0.9t-2.18,2.52t-0.76,3.82l0,0.32q0,2.44,0.82,4.08t2.42,2.5t3.84,0.86q1.68,0,3.32-0.5t3.12-1.7l1.16,2.4q-1.44,1.24-3.5,1.9t-4.14,0.66z M336.56,48.36q-3.52,0-5.28-1.86t-1.76-5.3l0-10.08l-3.92,0l0-2.72l4,0l0-5.92l3.32,0l0,5.92l6.64,0l0,2.72l-6.64,0l0,9.76q0,2.28,0.98,3.42t3.14,1.14q0.72,0,1.44-0.16t1.32-0.4l0.6,2.64q-0.68,0.36-1.74,0.6t-2.1,0.24z M343.84,48l0-28.2l3.36,0l0,12.84l-0.28,0q0.88-2.2,2.78-3.4t4.34-1.2q2.4,0,3.98,0.86t2.38,2.6t0.8,4.34l0,12.16l-3.4,0l0-11.96q0-1.68-0.46-2.84t-1.46-1.74t-2.6-0.58q-1.8,0-3.16,0.78t-2.12,2.14t-0.76,3.12l0,11.08l-3.4,0z M376.84,48.36q-3.2,0-5.52-1.22t-3.56-3.5t-1.24-5.44q0-3,1.18-5.28t3.34-3.58t5.04-1.3q2.8,0,4.74,1.2t2.98,3.38t1.04,5.22l0,1.2l-15.76,0l0-2.32l13.52,0l-0.68,0.64q0-3.2-1.48-4.98t-4.32-1.78q-1.96,0-3.38,0.9t-2.18,2.52t-0.76,3.82l0,0.32q0,2.44,0.82,4.08t2.42,2.5t3.84,0.86q1.68,0,3.32-0.5t3.12-1.7l1.16,2.4q-1.44,1.24-3.5,1.9t-4.14,0.66z M390.08,48l0-19.6l3.2,0l0,4.56l-0.16,0q0.68-2.28,2.42-3.5t4.42-1.42l1.48-0.12l0.32,3.04l-2.48,0.24q-2.76,0.24-4.26,1.78t-1.5,4.02l0,11l-3.44,0z"></path></g></svg>